<mxfile host="app.diagrams.net" modified="2021-04-07T08:23:29.548Z" agent="5.0 (Macintosh; Intel Mac OS X 11_2_3) AppleWebKit/537.36 (KHTML, like Gecko) Chrome/89.0.4389.114 Safari/537.36" etag="t13UiPrf5sP6FdmCnuH9" version="14.5.8" type="github">
  <diagram name="Page-1" id="e7e014a7-5840-1c2e-5031-d8a46d1fe8dd">
    <mxGraphModel dx="1184" dy="828" grid="1" gridSize="10" guides="1" tooltips="1" connect="1" arrows="1" fold="1" page="1" pageScale="1" pageWidth="1169" pageHeight="826" background="#ffffff" math="0" shadow="0">
      <root>
        <mxCell id="0" />
        <mxCell id="1" parent="0" />
        <mxCell id="yrffoCnlO5NJFIb2sB2T-43" value="" style="edgeStyle=orthogonalEdgeStyle;rounded=0;orthogonalLoop=1;jettySize=auto;html=1;" edge="1" parent="1" source="yrffoCnlO5NJFIb2sB2T-41" target="yrffoCnlO5NJFIb2sB2T-42">
          <mxGeometry relative="1" as="geometry" />
        </mxCell>
        <mxCell id="yrffoCnlO5NJFIb2sB2T-41" value="视频播放器播放文件的过程" style="rounded=0;whiteSpace=wrap;html=1;" vertex="1" parent="1">
          <mxGeometry x="330" y="120" width="110" height="50" as="geometry" />
        </mxCell>
        <mxCell id="yrffoCnlO5NJFIb2sB2T-84" value="" style="edgeStyle=orthogonalEdgeStyle;rounded=0;orthogonalLoop=1;jettySize=auto;html=1;fontSize=12;" edge="1" parent="1" source="yrffoCnlO5NJFIb2sB2T-42" target="yrffoCnlO5NJFIb2sB2T-44">
          <mxGeometry relative="1" as="geometry" />
        </mxCell>
        <mxCell id="yrffoCnlO5NJFIb2sB2T-42" value="数据" style="rounded=0;whiteSpace=wrap;html=1;" vertex="1" parent="1">
          <mxGeometry x="530" y="120" width="110" height="50" as="geometry" />
        </mxCell>
        <mxCell id="yrffoCnlO5NJFIb2sB2T-44" value="解协议" style="whiteSpace=wrap;html=1;rounded=0;" vertex="1" parent="1">
          <mxGeometry x="530" y="232" width="110" height="50" as="geometry" />
        </mxCell>
        <mxCell id="yrffoCnlO5NJFIb2sB2T-48" value="&lt;span style=&quot;color: rgb(77, 77, 77); font-size: 12px; background-color: rgb(255, 255, 255);&quot;&gt;将流媒体协议的数据，解析为标准的相应的封装格式数据。视音频在网络上传播的时候，常常采用各种流媒体协议，例如HTTP，RTMP，或是MMS等等。这些协议在传输视音频数据的同时，也会传输一些信令数据。这些信令数据包括对播放的控制（播放，暂停，停止），或者对网络状态的描述等。解协议的过程中会去除掉信令数据而只保留视音频数据&lt;/span&gt;" style="shape=ext;rounded=1;html=1;whiteSpace=wrap;dashed=1;dashPattern=1 4;arcSize=14;fontSize=12;labelPosition=center;verticalLabelPosition=middle;align=center;verticalAlign=middle;" vertex="1" parent="1">
          <mxGeometry x="730" y="218" width="550" height="73" as="geometry" />
        </mxCell>
        <mxCell id="yrffoCnlO5NJFIb2sB2T-51" value="" style="endArrow=block;dashed=1;endFill=0;endSize=12;html=1;" edge="1" parent="1">
          <mxGeometry width="160" relative="1" as="geometry">
            <mxPoint x="640" y="256.33" as="sourcePoint" />
            <mxPoint x="720" y="256.33" as="targetPoint" />
          </mxGeometry>
        </mxCell>
        <mxCell id="yrffoCnlO5NJFIb2sB2T-72" value="" style="edgeStyle=orthogonalEdgeStyle;rounded=0;orthogonalLoop=1;jettySize=auto;html=1;fontSize=12;" edge="1" parent="1" source="yrffoCnlO5NJFIb2sB2T-52" target="yrffoCnlO5NJFIb2sB2T-54">
          <mxGeometry relative="1" as="geometry" />
        </mxCell>
        <mxCell id="yrffoCnlO5NJFIb2sB2T-52" value="封装格式数据" style="whiteSpace=wrap;html=1;rounded=0;" vertex="1" parent="1">
          <mxGeometry x="530" y="313" width="115" height="50" as="geometry" />
        </mxCell>
        <mxCell id="yrffoCnlO5NJFIb2sB2T-74" value="" style="edgeStyle=orthogonalEdgeStyle;rounded=0;orthogonalLoop=1;jettySize=auto;html=1;fontSize=12;" edge="1" parent="1" source="yrffoCnlO5NJFIb2sB2T-54" target="yrffoCnlO5NJFIb2sB2T-73">
          <mxGeometry relative="1" as="geometry" />
        </mxCell>
        <mxCell id="yrffoCnlO5NJFIb2sB2T-54" value="解封装" style="whiteSpace=wrap;html=1;rounded=0;" vertex="1" parent="1">
          <mxGeometry x="527.5" y="410" width="120" height="50" as="geometry" />
        </mxCell>
        <mxCell id="yrffoCnlO5NJFIb2sB2T-59" value="" style="endArrow=block;dashed=1;endFill=0;endSize=12;html=1;" edge="1" parent="1">
          <mxGeometry width="160" relative="1" as="geometry">
            <mxPoint x="650" y="439.3299999999999" as="sourcePoint" />
            <mxPoint x="730" y="439.3299999999999" as="targetPoint" />
            <Array as="points">
              <mxPoint x="690" y="439.3299999999999" />
            </Array>
          </mxGeometry>
        </mxCell>
        <mxCell id="yrffoCnlO5NJFIb2sB2T-61" value="&lt;span style=&quot;color: rgb(77, 77, 77); font-size: 12px; background-color: rgb(255, 255, 255);&quot;&gt;将输入的封装格式的数据，分离成为音频流压缩编码数据和视频流压缩编码数据（如&lt;/span&gt;&lt;span style=&quot;color: rgb(77, 77, 77); font-size: 12px; background-color: rgb(255, 255, 255);&quot;&gt;FLV格式的数据，经过解封装操作后，输出H.264编码的视频码流和AAC编码的音频码流&lt;/span&gt;&lt;span style=&quot;color: rgb(77, 77, 77); font-size: 12px; background-color: rgb(255, 255, 255);&quot;&gt;&lt;br style=&quot;font-size: 12px;&quot;&gt;）&lt;/span&gt;" style="shape=ext;rounded=1;html=1;whiteSpace=wrap;dashed=1;dashPattern=1 4;arcSize=14;fontSize=12;labelPosition=center;verticalLabelPosition=middle;align=center;verticalAlign=middle;" vertex="1" parent="1">
          <mxGeometry x="735" y="411" width="540" height="60" as="geometry" />
        </mxCell>
        <mxCell id="yrffoCnlO5NJFIb2sB2T-62" value="&lt;span style=&quot;color: rgb(77, 77, 77); font-size: 12px; background-color: rgb(255, 255, 255);&quot;&gt;此过程会生成各种格式（MP4，MKV，RMVB，TS，FLV，AVI）数据&lt;/span&gt;" style="shape=ext;rounded=1;html=1;whiteSpace=wrap;dashed=1;dashPattern=1 4;arcSize=14;fontSize=12;labelPosition=center;verticalLabelPosition=middle;align=center;verticalAlign=middle;" vertex="1" parent="1">
          <mxGeometry x="730" y="309" width="550" height="60" as="geometry" />
        </mxCell>
        <mxCell id="yrffoCnlO5NJFIb2sB2T-63" value="" style="endArrow=block;dashed=1;endFill=0;endSize=12;html=1;" edge="1" parent="1">
          <mxGeometry width="160" relative="1" as="geometry">
            <mxPoint x="645" y="337.32999999999987" as="sourcePoint" />
            <mxPoint x="725" y="337.32999999999987" as="targetPoint" />
            <Array as="points">
              <mxPoint x="685" y="337.33" />
            </Array>
          </mxGeometry>
        </mxCell>
        <mxCell id="yrffoCnlO5NJFIb2sB2T-69" value="" style="edgeStyle=orthogonalEdgeStyle;rounded=0;orthogonalLoop=1;jettySize=auto;html=1;" edge="1" parent="1">
          <mxGeometry relative="1" as="geometry">
            <mxPoint x="583" y="282" as="sourcePoint" />
            <mxPoint x="583" y="312" as="targetPoint" />
          </mxGeometry>
        </mxCell>
        <mxCell id="yrffoCnlO5NJFIb2sB2T-76" value="" style="edgeStyle=orthogonalEdgeStyle;rounded=0;orthogonalLoop=1;jettySize=auto;html=1;fontSize=12;" edge="1" parent="1" source="yrffoCnlO5NJFIb2sB2T-73" target="yrffoCnlO5NJFIb2sB2T-75">
          <mxGeometry relative="1" as="geometry" />
        </mxCell>
        <mxCell id="yrffoCnlO5NJFIb2sB2T-78" value="" style="edgeStyle=orthogonalEdgeStyle;rounded=0;orthogonalLoop=1;jettySize=auto;html=1;fontSize=12;" edge="1" parent="1" source="yrffoCnlO5NJFIb2sB2T-73" target="yrffoCnlO5NJFIb2sB2T-77">
          <mxGeometry relative="1" as="geometry" />
        </mxCell>
        <mxCell id="yrffoCnlO5NJFIb2sB2T-73" value="" style="shape=doubleArrow;whiteSpace=wrap;html=1;fontSize=12;" vertex="1" parent="1">
          <mxGeometry x="537.5" y="500" width="100" height="60" as="geometry" />
        </mxCell>
        <mxCell id="yrffoCnlO5NJFIb2sB2T-83" value="" style="edgeStyle=orthogonalEdgeStyle;rounded=0;orthogonalLoop=1;jettySize=auto;html=1;fontSize=12;" edge="1" parent="1" source="yrffoCnlO5NJFIb2sB2T-75" target="yrffoCnlO5NJFIb2sB2T-82">
          <mxGeometry relative="1" as="geometry" />
        </mxCell>
        <mxCell id="yrffoCnlO5NJFIb2sB2T-75" value="音频压缩的数据" style="whiteSpace=wrap;html=1;" vertex="1" parent="1">
          <mxGeometry x="707.5" y="500" width="120" height="60" as="geometry" />
        </mxCell>
        <mxCell id="yrffoCnlO5NJFIb2sB2T-81" value="" style="edgeStyle=orthogonalEdgeStyle;rounded=0;orthogonalLoop=1;jettySize=auto;html=1;fontSize=12;" edge="1" parent="1" source="yrffoCnlO5NJFIb2sB2T-77" target="yrffoCnlO5NJFIb2sB2T-80">
          <mxGeometry relative="1" as="geometry" />
        </mxCell>
        <mxCell id="yrffoCnlO5NJFIb2sB2T-77" value="视频压缩的数据" style="whiteSpace=wrap;html=1;" vertex="1" parent="1">
          <mxGeometry x="347.5" y="500" width="120" height="60" as="geometry" />
        </mxCell>
        <mxCell id="yrffoCnlO5NJFIb2sB2T-86" value="" style="edgeStyle=orthogonalEdgeStyle;rounded=0;orthogonalLoop=1;jettySize=auto;html=1;fontSize=12;" edge="1" parent="1" source="yrffoCnlO5NJFIb2sB2T-80" target="yrffoCnlO5NJFIb2sB2T-85">
          <mxGeometry relative="1" as="geometry" />
        </mxCell>
        <mxCell id="yrffoCnlO5NJFIb2sB2T-80" value="解码" style="whiteSpace=wrap;html=1;" vertex="1" parent="1">
          <mxGeometry x="347.5" y="590" width="120" height="60" as="geometry" />
        </mxCell>
        <mxCell id="yrffoCnlO5NJFIb2sB2T-88" value="" style="edgeStyle=orthogonalEdgeStyle;rounded=0;orthogonalLoop=1;jettySize=auto;html=1;fontSize=12;" edge="1" parent="1" source="yrffoCnlO5NJFIb2sB2T-82" target="yrffoCnlO5NJFIb2sB2T-87">
          <mxGeometry relative="1" as="geometry" />
        </mxCell>
        <mxCell id="yrffoCnlO5NJFIb2sB2T-82" value="解码" style="whiteSpace=wrap;html=1;" vertex="1" parent="1">
          <mxGeometry x="707.5" y="590" width="120" height="60" as="geometry" />
        </mxCell>
        <mxCell id="yrffoCnlO5NJFIb2sB2T-85" value="原始数据" style="whiteSpace=wrap;html=1;" vertex="1" parent="1">
          <mxGeometry x="347.5" y="690" width="120" height="60" as="geometry" />
        </mxCell>
        <mxCell id="yrffoCnlO5NJFIb2sB2T-87" value="原始数据" style="whiteSpace=wrap;html=1;" vertex="1" parent="1">
          <mxGeometry x="707.5" y="690" width="120" height="60" as="geometry" />
        </mxCell>
      </root>
    </mxGraphModel>
  </diagram>
</mxfile>
